<svg xmlns="http://www.w3.org/2000/svg" width="77.627" height="70.461" viewBox="0 0 77.627 70.461">
  <g id="icon_info_sec" transform="translate(0 -23.631)">
    <g id="Group_84" data-name="Group 84" transform="translate(9.12 23.631)">
      <g id="Group_83" data-name="Group 83">
        <g id="Group_74" data-name="Group 74" transform="translate(7.917)">
          <g id="Group_73" data-name="Group 73">
            <path id="Path_205" data-name="Path 205" d="M161.4,29.367a.313.313,0,0,1,.312.312v5.267H166.3V24.1a.469.469,0,0,0-.469-.469H112.842a.469.469,0,0,0-.469.469v5.267Z" transform="translate(-112.373 -23.631)" fill="#dff6fd"/>
          </g>
        </g>
        <g id="Group_76" data-name="Group 76" transform="translate(7.917 0)">
          <g id="Group_75" data-name="Group 75">
            <path id="Path_206" data-name="Path 206" d="M118.06,23.631h-5.22a.469.469,0,0,0-.469.469v5.267h5.22V24.1A.469.469,0,0,1,118.06,23.631Z" transform="translate(-112.372 -23.631)" fill="#c8effe"/>
          </g>
        </g>
        <g id="Group_78" data-name="Group 78" transform="translate(3.495 5.579)">
          <g id="Group_77" data-name="Group 77">
            <path id="Path_207" data-name="Path 207" d="M90.955,71.37V66.478a.313.313,0,0,1,.312-.312h45.86V60.9a.469.469,0,0,0-.469-.469H83.674a.469.469,0,0,0-.469.469V71.37h7.75Z" transform="translate(-83.205 -60.43)" fill="#ffdcce"/>
          </g>
        </g>
        <g id="Group_79" data-name="Group 79" transform="translate(3.495 5.579)">
          <path id="Path_208" data-name="Path 208" d="M88.942,60.431H83.674a.469.469,0,0,0-.469.469V71.371h5.269V60.9a.469.469,0,0,1,.469-.468Z" transform="translate(-83.205 -60.431)" fill="#ffd1be"/>
        </g>
        <g id="Group_80" data-name="Group 80" transform="translate(11.089 11.159)">
          <path id="Path_209" data-name="Path 209" d="M148.29,102.591a1.4,1.4,0,0,1,1.253.768l4.474,8.784h33.2V97.7a.469.469,0,0,0-.469-.469H133.763a.469.469,0,0,0-.469.469v4.892Z" transform="translate(-133.294 -97.23)" fill="#fdf6ec"/>
        </g>
        <g id="Group_82" data-name="Group 82" transform="translate(11.089 11.159)">
          <g id="Group_81" data-name="Group 81">
            <path id="Path_210" data-name="Path 210" d="M139.715,97.23h-5.953a.469.469,0,0,0-.469.469v4.892h5.953V97.7A.469.469,0,0,1,139.715,97.23Z" transform="translate(-133.294 -97.23)" fill="#fef1da"/>
          </g>
        </g>
        <path id="Path_211" data-name="Path 211" d="M91.356,141.258l.7-.152-4.43-8.7a1.562,1.562,0,0,0-1.392-.853H61.716a1.562,1.562,0,0,0-1.562,1.562v7.989l.6.152Z" transform="translate(-60.154 -115.192)" fill="#fac600"/>
      </g>
    </g>
    <g id="Group_100" data-name="Group 100" transform="translate(0 39.994)">
      <g id="Group_88" data-name="Group 88" transform="translate(9.12)">
        <g id="Group_87" data-name="Group 87">
          <g id="Group_85" data-name="Group 85" transform="translate(0)">
            <path id="Path_212" data-name="Path 212" d="M69.855,131.555H61.716a1.562,1.562,0,0,0-1.562,1.562v7.989h8.139v-7.989A1.562,1.562,0,0,1,69.855,131.555Z" transform="translate(-60.154 -131.555)" fill="#e8b800"/>
          </g>
          <path id="Path_213" data-name="Path 213" d="M127.1,194.551H60.154V216.74H79.575a1.412,1.412,0,0,1,1.41,1.41v18.557H127.1a1.562,1.562,0,0,0,1.562-1.562V196.113A1.562,1.562,0,0,0,127.1,194.551Z" transform="translate(-60.154 -185)" fill="#fed402"/>
          <g id="Group_86" data-name="Group 86" transform="translate(0 9.551)">
            <path id="Path_214" data-name="Path 214" d="M66.085,201.4a10.474,10.474,0,0,1,2.208.236v-7.087H60.154v8.7A10.39,10.39,0,0,1,66.085,201.4Z" transform="translate(-60.154 -194.551)" fill="#fac600"/>
            <path id="Path_215" data-name="Path 215" d="M67.069,270.641a5.762,5.762,0,0,0-5.755,5.755v4.9h7.963V271.082a5.721,5.721,0,0,0-2.208-.441Z" transform="translate(-61.138 -259.105)" fill="#fac600"/>
          </g>
        </g>
      </g>
      <g id="Group_89" data-name="Group 89" transform="translate(47.909 0.172)">
        <path id="Path_216" data-name="Path 216" d="M334.582,134.963H317.128a1.137,1.137,0,0,1,0-2.274h17.454a1.137,1.137,0,0,1,0,2.274Z" transform="translate(-315.991 -132.689)" fill="#fae2c0"/>
      </g>
      <g id="Group_90" data-name="Group 90" transform="translate(49.122 37.831)">
        <path id="Path_217" data-name="Path 217" d="M344.374,387.621h-19.6a.781.781,0,0,1-.781-.781v-4.983a.781.781,0,0,1,.781-.781h19.6a.781.781,0,0,1,.781.781v4.983A.781.781,0,0,1,344.374,387.621Z" transform="translate(-323.992 -381.076)" fill="#fff"/>
      </g>
      <g id="Group_91" data-name="Group 91" transform="translate(49.122 37.831)">
        <path id="Path_218" data-name="Path 218" d="M332.505,386.84v-4.983a.781.781,0,0,1,.781-.781h-8.513a.781.781,0,0,0-.781.781v4.983a.781.781,0,0,0,.781.781h8.513A.781.781,0,0,1,332.505,386.84Z" transform="translate(-323.992 -381.076)" fill="#eef5f6"/>
      </g>
      <g id="Group_99" data-name="Group 99" transform="translate(0 16.402)">
        <g id="Group_92" data-name="Group 92" transform="translate(4.61)">
          <path id="Path_219" data-name="Path 219" d="M35.095,255.078v-4.9a5.755,5.755,0,0,1,11.511,0v4.9h4.686v-4.9a10.441,10.441,0,1,0-20.882,0v4.9Z" transform="translate(-30.409 -239.735)" fill="#7ca1b1"/>
        </g>
        <g id="Group_94" data-name="Group 94" transform="translate(4.61 0)">
          <g id="Group_93" data-name="Group 93">
            <path id="Path_220" data-name="Path 220" d="M42.176,239.823a10.425,10.425,0,0,0-11.767,10.354v4.9h2.653v-4.9A10.44,10.44,0,0,1,42.176,239.823Z" transform="translate(-30.409 -239.736)" fill="#678d98"/>
          </g>
        </g>
        <g id="Group_95" data-name="Group 95" transform="translate(0 15.187)">
          <path id="Path_221" data-name="Path 221" d="M29.479,444.439H.608L0,444.591v4.947A1.562,1.562,0,0,0,1.562,451.1H28.541a1.562,1.562,0,0,0,1.562-1.562v-4.947Z" transform="translate(0 -428.59)" fill="#fd5426"/>
          <path id="Path_222" data-name="Path 222" d="M28.541,339.9H1.562A1.562,1.562,0,0,0,0,341.466v4.947l.615.152H29.473l.631-.152v-4.947a1.562,1.562,0,0,0-1.562-1.562Z" transform="translate(0 -339.904)" fill="#fd5426"/>
        </g>
        <g id="Group_96" data-name="Group 96" transform="translate(0 15.187)">
          <path id="Path_223" data-name="Path 223" d="M6.638,360.852V341.466A1.562,1.562,0,0,1,8.2,339.9H1.562A1.562,1.562,0,0,0,0,341.466v19.386a1.562,1.562,0,0,0,1.562,1.562H8.2a1.562,1.562,0,0,1-1.562-1.562Z" transform="translate(0 -339.904)" fill="#ef4424"/>
        </g>
        <g id="Group_97" data-name="Group 97" transform="translate(0 21.696)">
          <path id="Path_224" data-name="Path 224" d="M0,382.834H30.1v9.492H0Z" transform="translate(0 -382.834)" fill="#fff"/>
        </g>
        <g id="Group_98" data-name="Group 98" transform="translate(0 21.696)">
          <path id="Path_225" data-name="Path 225" d="M0,382.834H6.638v9.492H0Z" transform="translate(0 -382.834)" fill="#eef5f6"/>
        </g>
      </g>
    </g>
  </g>
</svg>
