<svg xmlns="http://www.w3.org/2000/svg" width="36" height="36" viewBox="0 0 36 36">
  <g id="icon_info_alt" transform="translate(-307 -241)">
    <circle id="Ellipse_3" data-name="Ellipse 3" cx="18" cy="18" r="18" transform="translate(307 241)" fill="#da291c"/>
    <g id="info" transform="translate(320.23 247.939)">
      <path id="Path_92" data-name="Path 92" d="M40.8,20.106l-.315,1.287q-1.417.559-2.261.852a5.965,5.965,0,0,1-1.961.293,3.915,3.915,0,0,1-2.668-.837,2.708,2.708,0,0,1-.952-2.126,7.518,7.518,0,0,1,.071-1.023q.072-.523.23-1.181l1.181-4.179q.158-.6.266-1.138a4.945,4.945,0,0,0,.107-.979,1.515,1.515,0,0,0-.33-1.117A1.867,1.867,0,0,0,32.9,9.644a3.309,3.309,0,0,0-.939.143c-.321.095-.6.187-.826.272l.316-1.288q1.16-.472,2.22-.808a6.64,6.64,0,0,1,2.007-.337,3.819,3.819,0,0,1,2.628.824,2.733,2.733,0,0,1,.923,2.139c0,.182-.02.5-.064.959a6.414,6.414,0,0,1-.237,1.26L37.757,16.97a11.055,11.055,0,0,0-.258,1.147,5.9,5.9,0,0,0-.115.973,1.4,1.4,0,0,0,.37,1.131,2.091,2.091,0,0,0,1.286.3,3.714,3.714,0,0,0,.972-.15A5.437,5.437,0,0,0,40.8,20.106Zm.3-17.474a2.436,2.436,0,0,1-.823,1.854,2.8,2.8,0,0,1-1.98.767,2.831,2.831,0,0,1-1.99-.767,2.43,2.43,0,0,1-.83-1.854A2.454,2.454,0,0,1,36.3.772a2.938,2.938,0,0,1,3.971,0A2.459,2.459,0,0,1,41.1,2.632Z" transform="translate(-31.139 0)" fill="#fff"/>
    </g>
  </g>
</svg>
